<svg width="345" height="57" viewBox="0 0 345 57" fill="none" xmlns="http://www.w3.org/2000/svg">
<path fill-rule="evenodd" clip-rule="evenodd" d="M24.7014 0.123627C24.4675 0.174029 23.4626 0.365644 22.4684 0.549602C18.8428 1.22057 14.6592 3.10141 11.4755 5.4916C5.40043 10.0527 1.64151 16.3464 0.441419 23.9668C-0.210624 28.1068 0.349545 33.6898 1.8059 37.5644C2.21423 38.6513 2.21465 38.6758 1.81845 38.8017C1.596 38.8721 1.41417 39.0171 1.41417 39.1237C1.41417 39.4252 5.93912 42.7582 6.09862 42.5738C6.17646 42.4838 6.1956 41.1364 6.14094 39.5794C6.06055 37.2837 5.98633 36.7711 5.74836 36.8679C5.58694 36.9336 5.32132 37.0414 5.15799 37.1078C4.94234 37.1954 4.73839 36.8317 4.41301 35.7786C2.5562 29.7705 2.75334 24.2271 5.02549 18.5569C8.31059 10.3585 16.281 4.23749 25.0887 3.14948C29.7784 2.56996 35.2802 3.49443 39.3411 5.54413C42.2113 6.99283 45.9306 10.0102 47.6894 12.3164C48.136 12.9018 48.5565 13.381 48.6239 13.381C48.6911 13.381 49.2936 13.0386 49.9624 12.6203L51.1784 11.8598L50.2485 10.6531C49.0122 9.04912 46.0882 6.26635 44.3733 5.06158C40.7926 2.54614 37.0953 1.03938 32.6765 0.294825C31.0202 0.0158032 25.7311 -0.0977616 24.7014 0.123627ZM50.1951 13.8329C50.2682 14.1985 50.328 15.5359 50.328 16.8049V19.1124L50.8709 18.9061C51.3639 18.7185 51.4413 18.7655 51.7135 19.4169C52.329 20.8901 52.8824 23.4264 53.1195 25.8619C54.0718 35.6402 48.7968 45.3051 39.9072 50.0695C33.2849 53.6185 25.3609 53.9737 18.4277 51.0321C15.3629 49.7318 11.6127 47.0526 9.60191 44.7269C9.13404 44.1858 8.51199 43.4691 8.21957 43.1342L7.6879 42.5255L6.47207 43.2926C5.03655 44.1986 5.00082 44.0423 7.22194 46.5826C14.555 54.9703 26.5189 58.1412 37.2467 54.5398C40.5165 53.4422 44.4139 51.1369 47.33 48.5753C48.5582 47.4967 51.2329 44.1433 52.3018 42.3422C55.6009 36.7833 56.9054 30.2837 55.9707 24.061C55.6609 21.9983 54.7796 18.615 54.3366 17.787C54.1469 17.4327 54.1879 17.2932 54.565 17.0087L55.0246 16.662L54.5371 16.2182C53.6865 15.4434 50.5128 13.1683 50.2829 13.1683C50.1491 13.1683 50.1145 13.4299 50.1951 13.8329Z" fill="white"/>
<circle cx="28.1379" cy="27.9729" r="21.7986" fill="#DF3A33"/>
<path d="M102.455 23.1244C101.423 23.1244 100.47 22.9546 99.5944 22.615C98.7194 22.2624 97.9618 21.7726 97.3219 21.1457C96.6819 20.5188 96.179 19.7808 95.8133 18.9319C95.4607 18.0829 95.2844 17.1556 95.2844 16.1499C95.2844 15.1442 95.4607 14.2169 95.8133 13.368C96.179 12.519 96.6819 11.7811 97.3219 11.1541C97.9749 10.5272 98.739 10.044 99.614 9.7044C100.489 9.35175 101.443 9.17543 102.474 9.17543C103.467 9.17543 104.401 9.34522 105.276 9.6848C106.151 10.0113 106.889 10.5076 107.49 11.1737L106.569 12.0945C106.007 11.5198 105.387 11.1084 104.708 10.8603C104.029 10.5991 103.297 10.4685 102.514 10.4685C101.691 10.4685 100.927 10.6121 100.221 10.8995C99.5161 11.1737 98.9022 11.5721 98.3798 12.0945C97.8573 12.6039 97.4459 13.2047 97.1455 13.8969C96.8582 14.5761 96.7145 15.3271 96.7145 16.1499C96.7145 16.9727 96.8582 17.7303 97.1455 18.4225C97.4459 19.1017 97.8573 19.7024 98.3798 20.2249C98.9022 20.7343 99.5161 21.1326 100.221 21.4199C100.927 21.6942 101.691 21.8314 102.514 21.8314C103.297 21.8314 104.029 21.7008 104.708 21.4395C105.387 21.1783 106.007 20.7604 106.569 20.1857L107.49 21.1065C106.889 21.7726 106.151 22.2754 105.276 22.615C104.401 22.9546 103.46 23.1244 102.455 23.1244ZM114.196 23.1048C113.125 23.1048 112.185 22.8828 111.375 22.4387C110.565 21.9816 109.932 21.3612 109.475 20.5775C109.017 19.7808 108.789 18.8731 108.789 17.8543C108.789 16.8356 109.004 15.9344 109.435 15.1508C109.879 14.3671 110.48 13.7532 111.238 13.3092C112.008 12.8521 112.87 12.6235 113.824 12.6235C114.79 12.6235 115.646 12.8455 116.39 13.2896C117.148 13.7206 117.742 14.3345 118.173 15.1312C118.604 15.9148 118.82 16.8225 118.82 17.8543C118.82 17.9196 118.813 17.9915 118.8 18.0698C118.8 18.1352 118.8 18.207 118.8 18.2854H109.847V17.247H118.055L117.507 17.6584C117.507 16.914 117.344 16.2544 117.017 15.6797C116.704 15.092 116.273 14.6349 115.724 14.3083C115.176 13.9818 114.542 13.8186 113.824 13.8186C113.119 13.8186 112.485 13.9818 111.923 14.3083C111.362 14.6349 110.924 15.092 110.611 15.6797C110.297 16.2675 110.141 16.9401 110.141 17.6976V17.9131C110.141 18.6968 110.31 19.389 110.65 19.9898C111.003 20.5775 111.486 21.0412 112.1 21.3808C112.727 21.7073 113.438 21.8705 114.235 21.8705C114.862 21.8705 115.443 21.7595 115.979 21.5375C116.527 21.3155 116.998 20.9759 117.389 20.5188L118.173 21.4199C117.716 21.9685 117.141 22.3864 116.449 22.6738C115.77 22.9611 115.019 23.1048 114.196 23.1048ZM126.901 12.6235C127.737 12.6235 128.469 12.7867 129.095 13.1133C129.735 13.4267 130.232 13.91 130.584 14.563C130.95 15.2161 131.133 16.0389 131.133 17.0315V23.0068H129.742V17.1687C129.742 16.0846 129.468 15.2683 128.919 14.7197C128.384 14.1581 127.626 13.8773 126.647 13.8773C125.915 13.8773 125.275 14.0275 124.727 14.3279C124.191 14.6153 123.773 15.0397 123.473 15.6014C123.185 16.1499 123.042 16.816 123.042 17.5997V23.0068H121.651V12.7214H122.983V15.5426L122.767 15.0136C123.094 14.2692 123.616 13.6879 124.335 13.27C125.053 12.839 125.909 12.6235 126.901 12.6235ZM138.142 23.1048C137.176 23.1048 136.431 22.8436 135.909 22.3211C135.386 21.7987 135.125 21.0608 135.125 20.1073V10.4489H136.516V20.029C136.516 20.6298 136.666 21.0934 136.967 21.4199C137.28 21.7465 137.724 21.9097 138.299 21.9097C138.913 21.9097 139.422 21.7334 139.827 21.3808L140.317 22.3799C140.043 22.6281 139.71 22.8109 139.318 22.9285C138.939 23.046 138.547 23.1048 138.142 23.1048ZM133.284 13.8773V12.7214H139.651V13.8773H133.284ZM142.849 23.0068V12.7214H144.181V15.523L144.044 15.0332C144.332 14.2496 144.815 13.6553 145.494 13.2504C146.173 12.8325 147.016 12.6235 148.021 12.6235V13.9753C147.969 13.9753 147.917 13.9753 147.864 13.9753C147.812 13.9622 147.76 13.9557 147.708 13.9557C146.624 13.9557 145.775 14.2887 145.161 14.9548C144.547 15.6079 144.24 16.5417 144.24 17.7564V23.0068H142.849ZM154.656 23.1048C153.664 23.1048 152.769 22.8828 151.972 22.4387C151.189 21.9816 150.568 21.3612 150.111 20.5775C149.654 19.7808 149.425 18.8731 149.425 17.8543C149.425 16.8225 149.654 15.9148 150.111 15.1312C150.568 14.3475 151.189 13.7337 151.972 13.2896C152.756 12.8455 153.65 12.6235 154.656 12.6235C155.675 12.6235 156.576 12.8455 157.36 13.2896C158.156 13.7337 158.777 14.3475 159.221 15.1312C159.678 15.9148 159.907 16.8225 159.907 17.8543C159.907 18.8731 159.678 19.7808 159.221 20.5775C158.777 21.3612 158.156 21.9816 157.36 22.4387C156.563 22.8828 155.662 23.1048 154.656 23.1048ZM154.656 21.8705C155.401 21.8705 156.06 21.7073 156.635 21.3808C157.21 21.0412 157.66 20.571 157.987 19.9702C158.326 19.3563 158.496 18.6511 158.496 17.8543C158.496 17.0446 158.326 16.3393 157.987 15.7385C157.66 15.1377 157.21 14.674 156.635 14.3475C156.06 14.0079 155.407 13.8381 154.676 13.8381C153.944 13.8381 153.291 14.0079 152.717 14.3475C152.142 14.674 151.685 15.1377 151.345 15.7385C151.006 16.3393 150.836 17.0446 150.836 17.8543C150.836 18.6511 151.006 19.3563 151.345 19.9702C151.685 20.571 152.142 21.0412 152.717 21.3808C153.291 21.7073 153.938 21.8705 154.656 21.8705ZM168.168 23.0068V9.29298H174.084C175.612 9.29298 176.794 9.59991 177.63 10.2138C178.479 10.8276 178.904 11.6962 178.904 12.8194C178.904 13.5639 178.727 14.1908 178.375 14.7002C178.035 15.2095 177.565 15.5948 176.964 15.856C176.376 16.1173 175.73 16.2479 175.025 16.2479L175.358 15.7777C176.233 15.7777 176.984 15.9148 177.611 16.1891C178.251 16.4503 178.747 16.8487 179.1 17.3842C179.452 17.9066 179.629 18.5596 179.629 19.3433C179.629 20.5057 179.198 21.4069 178.336 22.0469C177.487 22.6868 176.2 23.0068 174.476 23.0068H168.168ZM169.617 21.8118H174.456C175.658 21.8118 176.579 21.6093 177.219 21.2044C177.859 20.7865 178.179 20.1269 178.179 19.2257C178.179 18.3376 177.859 17.6911 177.219 17.2862C176.579 16.8683 175.658 16.6593 174.456 16.6593H169.461V15.4642H173.986C175.083 15.4642 175.932 15.2552 176.533 14.8373C177.147 14.4193 177.454 13.799 177.454 12.9761C177.454 12.1402 177.147 11.5198 176.533 11.115C175.932 10.697 175.083 10.488 173.986 10.488H169.617V21.8118ZM186.836 23.1048C185.844 23.1048 184.949 22.8828 184.152 22.4387C183.369 21.9816 182.748 21.3612 182.291 20.5775C181.834 19.7808 181.605 18.8731 181.605 17.8543C181.605 16.8225 181.834 15.9148 182.291 15.1312C182.748 14.3475 183.369 13.7337 184.152 13.2896C184.936 12.8455 185.831 12.6235 186.836 12.6235C187.855 12.6235 188.756 12.8455 189.54 13.2896C190.337 13.7337 190.957 14.3475 191.401 15.1312C191.858 15.9148 192.087 16.8225 192.087 17.8543C192.087 18.8731 191.858 19.7808 191.401 20.5775C190.957 21.3612 190.337 21.9816 189.54 22.4387C188.743 22.8828 187.842 23.1048 186.836 23.1048ZM186.836 21.8705C187.581 21.8705 188.24 21.7073 188.815 21.3808C189.39 21.0412 189.84 20.571 190.167 19.9702C190.506 19.3563 190.676 18.6511 190.676 17.8543C190.676 17.0446 190.506 16.3393 190.167 15.7385C189.84 15.1377 189.39 14.674 188.815 14.3475C188.24 14.0079 187.587 13.8381 186.856 13.8381C186.124 13.8381 185.471 14.0079 184.897 14.3475C184.322 14.674 183.865 15.1377 183.525 15.7385C183.186 16.3393 183.016 17.0446 183.016 17.8543C183.016 18.6511 183.186 19.3563 183.525 19.9702C183.865 20.571 184.322 21.0412 184.897 21.3808C185.471 21.7073 186.118 21.8705 186.836 21.8705ZM194.927 23.0068V8.47015H196.318V23.0068H194.927ZM204.38 23.1048C203.388 23.1048 202.493 22.8828 201.696 22.4387C200.913 21.9816 200.292 21.3612 199.835 20.5775C199.378 19.7808 199.15 18.8731 199.15 17.8543C199.15 16.8225 199.378 15.9148 199.835 15.1312C200.292 14.3475 200.913 13.7337 201.696 13.2896C202.48 12.8455 203.375 12.6235 204.38 12.6235C205.399 12.6235 206.3 12.8455 207.084 13.2896C207.881 13.7337 208.501 14.3475 208.945 15.1312C209.402 15.9148 209.631 16.8225 209.631 17.8543C209.631 18.8731 209.402 19.7808 208.945 20.5775C208.501 21.3612 207.881 21.9816 207.084 22.4387C206.287 22.8828 205.386 23.1048 204.38 23.1048ZM204.38 21.8705C205.125 21.8705 205.784 21.7073 206.359 21.3808C206.934 21.0412 207.384 20.571 207.711 19.9702C208.05 19.3563 208.22 18.6511 208.22 17.8543C208.22 17.0446 208.05 16.3393 207.711 15.7385C207.384 15.1377 206.934 14.674 206.359 14.3475C205.784 14.0079 205.131 13.8381 204.4 13.8381C203.669 13.8381 203.016 14.0079 202.441 14.3475C201.866 14.674 201.409 15.1377 201.069 15.7385C200.73 16.3393 200.56 17.0446 200.56 17.8543C200.56 18.6511 200.73 19.3563 201.069 19.9702C201.409 20.571 201.866 21.0412 202.441 21.3808C203.016 21.7073 203.662 21.8705 204.38 21.8705ZM216.859 26.9055C215.919 26.9055 215.018 26.7684 214.155 26.4941C213.293 26.2198 212.595 25.828 212.059 25.3186L212.765 24.2607C213.248 24.6917 213.842 25.0313 214.547 25.2794C215.266 25.5406 216.023 25.6712 216.82 25.6712C218.126 25.6712 219.086 25.3643 219.7 24.7505C220.314 24.1497 220.621 23.2093 220.621 21.9293V19.3629L220.817 17.5997L220.679 15.8364V12.7214H222.012V21.753C222.012 23.5293 221.574 24.8288 220.699 25.6517C219.837 26.4875 218.557 26.9055 216.859 26.9055ZM216.604 22.615C215.625 22.615 214.743 22.406 213.96 21.9881C213.176 21.5571 212.556 20.9628 212.098 20.2053C211.654 19.4478 211.432 18.5792 211.432 17.5997C211.432 16.6201 211.654 15.7581 212.098 15.0136C212.556 14.2561 213.176 13.6684 213.96 13.2504C214.743 12.8325 215.625 12.6235 216.604 12.6235C217.519 12.6235 218.341 12.8129 219.073 13.1916C219.804 13.5704 220.385 14.132 220.817 14.8765C221.248 15.6209 221.463 16.5287 221.463 17.5997C221.463 18.6706 221.248 19.5784 220.817 20.3228C220.385 21.0673 219.804 21.6355 219.073 22.0273C218.341 22.4191 217.519 22.615 216.604 22.615ZM216.742 21.3808C217.499 21.3808 218.172 21.224 218.759 20.9106C219.347 20.5841 219.811 20.14 220.15 19.5784C220.49 19.0037 220.66 18.3441 220.66 17.5997C220.66 16.8552 220.49 16.2022 220.15 15.6405C219.811 15.0789 219.347 14.6414 218.759 14.3279C218.172 14.0014 217.499 13.8381 216.742 13.8381C215.997 13.8381 215.324 14.0014 214.724 14.3279C214.136 14.6414 213.672 15.0789 213.333 15.6405C213.006 16.2022 212.843 16.8552 212.843 17.5997C212.843 18.3441 213.006 19.0037 213.333 19.5784C213.672 20.14 214.136 20.5841 214.724 20.9106C215.324 21.224 215.997 21.3808 216.742 21.3808ZM231.133 12.6235C231.969 12.6235 232.7 12.7867 233.327 13.1133C233.967 13.4267 234.463 13.91 234.816 14.563C235.182 15.2161 235.364 16.0389 235.364 17.0315V23.0068H233.973V17.1687C233.973 16.0846 233.699 15.2683 233.151 14.7197C232.615 14.1581 231.858 13.8773 230.878 13.8773C230.147 13.8773 229.507 14.0275 228.958 14.3279C228.423 14.6153 228.005 15.0397 227.704 15.6014C227.417 16.1499 227.273 16.816 227.273 17.5997V23.0068H225.882V12.7214H227.214V15.5426L226.999 15.0136C227.325 14.2692 227.848 13.6879 228.566 13.27C229.285 12.839 230.14 12.6235 231.133 12.6235ZM243.49 23.1048C242.419 23.1048 241.479 22.8828 240.669 22.4387C239.86 21.9816 239.226 21.3612 238.769 20.5775C238.312 19.7808 238.083 18.8731 238.083 17.8543C238.083 16.8356 238.299 15.9344 238.73 15.1508C239.174 14.3671 239.775 13.7532 240.532 13.3092C241.303 12.8521 242.165 12.6235 243.118 12.6235C244.085 12.6235 244.94 12.8455 245.685 13.2896C246.442 13.7206 247.036 14.3345 247.467 15.1312C247.898 15.9148 248.114 16.8225 248.114 17.8543C248.114 17.9196 248.107 17.9915 248.094 18.0698C248.094 18.1352 248.094 18.207 248.094 18.2854H239.141V17.247H247.35L246.801 17.6584C246.801 16.914 246.638 16.2544 246.312 15.6797C245.998 15.092 245.567 14.6349 245.019 14.3083C244.47 13.9818 243.837 13.8186 243.118 13.8186C242.413 13.8186 241.779 13.9818 241.218 14.3083C240.656 14.6349 240.219 15.092 239.905 15.6797C239.592 16.2675 239.435 16.9401 239.435 17.6976V17.9131C239.435 18.6968 239.605 19.389 239.944 19.9898C240.297 20.5775 240.78 21.0412 241.394 21.3808C242.021 21.7073 242.733 21.8705 243.53 21.8705C244.157 21.8705 244.738 21.7595 245.273 21.5375C245.822 21.3155 246.292 20.9759 246.684 20.5188L247.467 21.4199C247.01 21.9685 246.436 22.3864 245.743 22.6738C245.064 22.9611 244.313 23.1048 243.49 23.1048ZM253.708 23.1048C252.859 23.1048 252.055 22.9872 251.298 22.7522C250.54 22.504 249.946 22.1971 249.515 21.8314L250.142 20.7343C250.56 21.0477 251.095 21.322 251.748 21.5571C252.401 21.7791 253.087 21.8901 253.806 21.8901C254.785 21.8901 255.49 21.7399 255.921 21.4395C256.352 21.1261 256.568 20.7147 256.568 20.2053C256.568 19.8265 256.444 19.5327 256.196 19.3237C255.961 19.1017 255.647 18.9384 255.255 18.8339C254.863 18.7164 254.426 18.6184 253.943 18.54C253.459 18.4617 252.976 18.3702 252.493 18.2658C252.023 18.1613 251.592 18.0111 251.2 17.8152C250.808 17.6062 250.488 17.3254 250.24 16.9727C250.005 16.6201 249.887 16.1499 249.887 15.5622C249.887 15.0006 250.044 14.4977 250.357 14.0536C250.671 13.6096 251.128 13.2635 251.729 13.0153C252.343 12.7541 253.087 12.6235 253.962 12.6235C254.628 12.6235 255.294 12.7149 255.961 12.8978C256.627 13.0676 257.175 13.2961 257.606 13.5835L256.999 14.7002C256.542 14.3867 256.052 14.1647 255.53 14.0341C255.007 13.8904 254.485 13.8186 253.962 13.8186C253.035 13.8186 252.349 13.9818 251.905 14.3083C251.474 14.6218 251.259 15.0267 251.259 15.523C251.259 15.9148 251.376 16.2217 251.611 16.4438C251.859 16.6658 252.179 16.8421 252.571 16.9727C252.976 17.0903 253.414 17.1882 253.884 17.2666C254.367 17.345 254.844 17.4429 255.314 17.5605C255.797 17.665 256.235 17.8152 256.627 18.0111C257.032 18.1939 257.352 18.4617 257.587 18.8143C257.835 19.1539 257.959 19.6045 257.959 20.1661C257.959 20.7669 257.789 21.2893 257.449 21.7334C257.123 22.1644 256.64 22.504 256 22.7522C255.373 22.9872 254.609 23.1048 253.708 23.1048ZM264.88 23.1048C263.809 23.1048 262.869 22.8828 262.059 22.4387C261.249 21.9816 260.616 21.3612 260.159 20.5775C259.701 19.7808 259.473 18.8731 259.473 17.8543C259.473 16.8356 259.688 15.9344 260.119 15.1508C260.563 14.3671 261.164 13.7532 261.922 13.3092C262.692 12.8521 263.554 12.6235 264.508 12.6235C265.474 12.6235 266.33 12.8455 267.074 13.2896C267.832 13.7206 268.426 14.3345 268.857 15.1312C269.288 15.9148 269.504 16.8225 269.504 17.8543C269.504 17.9196 269.497 17.9915 269.484 18.0698C269.484 18.1352 269.484 18.207 269.484 18.2854H260.531V17.247H268.74L268.191 17.6584C268.191 16.914 268.028 16.2544 267.701 15.6797C267.388 15.092 266.957 14.6349 266.408 14.3083C265.86 13.9818 265.226 13.8186 264.508 13.8186C263.803 13.8186 263.169 13.9818 262.607 14.3083C262.046 14.6349 261.608 15.092 261.295 15.6797C260.981 16.2675 260.825 16.9401 260.825 17.6976V17.9131C260.825 18.6968 260.994 19.389 261.334 19.9898C261.687 20.5775 262.17 21.0412 262.784 21.3808C263.411 21.7073 264.123 21.8705 264.919 21.8705C265.546 21.8705 266.127 21.7595 266.663 21.5375C267.211 21.3155 267.682 20.9759 268.073 20.5188L268.857 21.4199C268.4 21.9685 267.825 22.3864 267.133 22.6738C266.454 22.9611 265.703 23.1048 264.88 23.1048ZM100.3 47.1048C99.3202 47.1048 98.4386 46.8828 97.6549 46.4387C96.8843 45.9946 96.277 45.3808 95.8329 44.5971C95.3889 43.8004 95.1668 42.8861 95.1668 41.8543C95.1668 40.8095 95.3889 39.8952 95.8329 39.1116C96.277 38.3279 96.8843 37.7206 97.6549 37.2896C98.4386 36.8455 99.3202 36.6235 100.3 36.6235C101.201 36.6235 102.004 36.8259 102.709 37.2308C103.428 37.6357 103.996 38.23 104.414 39.0136C104.845 39.7842 105.06 40.7311 105.06 41.8543C105.06 42.9645 104.851 43.9114 104.433 44.6951C104.016 45.4787 103.447 46.0795 102.729 46.4975C102.024 46.9023 101.214 47.1048 100.3 47.1048ZM100.398 45.8705C101.129 45.8705 101.782 45.7073 102.357 45.3808C102.945 45.0412 103.402 44.571 103.728 43.9702C104.068 43.3563 104.238 42.6511 104.238 41.8543C104.238 41.0446 104.068 40.3393 103.728 39.7385C103.402 39.1377 102.945 38.674 102.357 38.3475C101.782 38.0079 101.129 37.8381 100.398 37.8381C99.6793 37.8381 99.0328 38.0079 98.4581 38.3475C97.8835 38.674 97.4263 39.1377 97.0868 39.7385C96.7472 40.3393 96.5774 41.0446 96.5774 41.8543C96.5774 42.6511 96.7472 43.3563 97.0868 43.9702C97.4263 44.571 97.8835 45.0412 98.4581 45.3808C99.0328 45.7073 99.6793 45.8705 100.398 45.8705ZM104.277 47.0068V43.9114L104.414 41.8348L104.218 39.7581V32.4701H105.609V47.0068H104.277ZM109.483 47.0068V36.7214H110.874V47.0068H109.483ZM110.188 34.4489C109.901 34.4489 109.659 34.3509 109.463 34.155C109.267 33.9591 109.169 33.724 109.169 33.4497C109.169 33.1754 109.267 32.9469 109.463 32.764C109.659 32.5681 109.901 32.4701 110.188 32.4701C110.475 32.4701 110.717 32.5616 110.913 32.7444C111.109 32.9273 111.207 33.1558 111.207 33.4301C111.207 33.7175 111.109 33.9591 110.913 34.155C110.73 34.3509 110.488 34.4489 110.188 34.4489ZM122.83 47.0068V34.5468H118.01V33.293H129.099V34.5468H124.28V47.0068H122.83ZM134.419 47.1048C133.348 47.1048 132.407 46.8828 131.597 46.4387C130.788 45.9816 130.154 45.3612 129.697 44.5775C129.24 43.7808 129.011 42.8731 129.011 41.8543C129.011 40.8356 129.227 39.9344 129.658 39.1508C130.102 38.3671 130.703 37.7532 131.46 37.3092C132.231 36.8521 133.093 36.6235 134.046 36.6235C135.013 36.6235 135.868 36.8455 136.613 37.2896C137.37 37.7206 137.965 38.3345 138.396 39.1312C138.827 39.9148 139.042 40.8225 139.042 41.8543C139.042 41.9196 139.036 41.9915 139.023 42.0698C139.023 42.1352 139.023 42.207 139.023 42.2854H130.069V41.247H138.278L137.73 41.6584C137.73 40.914 137.566 40.2544 137.24 39.6797C136.926 39.092 136.495 38.6349 135.947 38.3083C135.398 37.9818 134.765 37.8186 134.046 37.8186C133.341 37.8186 132.708 37.9818 132.146 38.3083C131.584 38.6349 131.147 39.092 130.833 39.6797C130.52 40.2675 130.363 40.9401 130.363 41.6976V41.9131C130.363 42.6968 130.533 43.389 130.873 43.9898C131.225 44.5775 131.708 45.0412 132.322 45.3808C132.949 45.7073 133.661 45.8705 134.458 45.8705C135.085 45.8705 135.666 45.7595 136.201 45.5375C136.75 45.3155 137.22 44.9759 137.612 44.5188L138.396 45.4199C137.938 45.9685 137.364 46.3864 136.672 46.6738C135.992 46.9611 135.241 47.1048 134.419 47.1048ZM141.873 47.0068V36.7214H143.206V39.523L143.068 39.0332C143.356 38.2496 143.839 37.6553 144.518 37.2504C145.197 36.8325 146.04 36.6235 147.045 36.6235V37.9753C146.993 37.9753 146.941 37.9753 146.889 37.9753C146.836 37.9622 146.784 37.9557 146.732 37.9557C145.648 37.9557 144.799 38.2887 144.185 38.9548C143.571 39.6079 143.264 40.5417 143.264 41.7564V47.0068H141.873ZM155.264 47.0068V44.7343L155.205 44.362V40.5613C155.205 39.6862 154.957 39.0136 154.461 38.5434C153.977 38.0732 153.252 37.8381 152.286 37.8381C151.62 37.8381 150.986 37.9492 150.386 38.1712C149.785 38.3932 149.275 38.6871 148.857 39.0528L148.231 38.0145C148.753 37.5704 149.38 37.2308 150.111 36.9957C150.843 36.7476 151.613 36.6235 152.423 36.6235C153.755 36.6235 154.781 36.9565 155.499 37.6226C156.23 38.2757 156.596 39.2748 156.596 40.6201V47.0068H155.264ZM151.718 47.1048C150.947 47.1048 150.275 46.9807 149.7 46.7326C149.138 46.4713 148.707 46.1187 148.407 45.6746C148.106 45.2175 147.956 44.6951 147.956 44.1073C147.956 43.5718 148.08 43.0886 148.329 42.6576C148.59 42.2135 149.008 41.8609 149.582 41.5997C150.17 41.3254 150.954 41.1882 151.933 41.1882H155.479V42.2266H151.972C150.98 42.2266 150.288 42.4029 149.896 42.7555C149.517 43.1082 149.328 43.5457 149.328 44.0682C149.328 44.6559 149.556 45.1261 150.013 45.4787C150.47 45.8314 151.11 46.0077 151.933 46.0077C152.717 46.0077 153.39 45.8314 153.951 45.4787C154.526 45.113 154.944 44.5906 155.205 43.9114L155.519 44.8714C155.257 45.5506 154.8 46.0926 154.147 46.4975C153.507 46.9023 152.697 47.1048 151.718 47.1048ZM165.683 47.1048C164.795 47.1048 163.992 46.9023 163.274 46.4975C162.555 46.0795 161.981 45.4853 161.55 44.7147C161.132 43.931 160.923 42.9776 160.923 41.8543C160.923 40.7311 161.132 39.7842 161.55 39.0136C161.967 38.23 162.536 37.6357 163.254 37.2308C163.972 36.8259 164.782 36.6235 165.683 36.6235C166.663 36.6235 167.538 36.8455 168.309 37.2896C169.092 37.7206 169.706 38.3345 170.15 39.1312C170.594 39.9148 170.816 40.8225 170.816 41.8543C170.816 42.8992 170.594 43.8135 170.15 44.5971C169.706 45.3808 169.092 45.9946 168.309 46.4387C167.538 46.8828 166.663 47.1048 165.683 47.1048ZM160.374 50.8075V36.7214H161.706V39.8169L161.569 41.8739L161.765 43.9506V50.8075H160.374ZM165.585 45.8705C166.317 45.8705 166.97 45.7073 167.544 45.3808C168.119 45.0412 168.576 44.571 168.916 43.9702C169.255 43.3563 169.425 42.6511 169.425 41.8543C169.425 41.0576 169.255 40.3589 168.916 39.7581C168.576 39.1573 168.119 38.6871 167.544 38.3475C166.97 38.0079 166.317 37.8381 165.585 37.8381C164.854 37.8381 164.194 38.0079 163.607 38.3475C163.032 38.6871 162.575 39.1573 162.235 39.7581C161.909 40.3589 161.745 41.0576 161.745 41.8543C161.745 42.6511 161.909 43.3563 162.235 43.9702C162.575 44.571 163.032 45.0412 163.607 45.3808C164.194 45.7073 164.854 45.8705 165.585 45.8705ZM173.652 47.0068V36.7214H175.043V47.0068H173.652ZM174.357 34.4489C174.07 34.4489 173.828 34.3509 173.632 34.155C173.436 33.9591 173.338 33.724 173.338 33.4497C173.338 33.1754 173.436 32.9469 173.632 32.764C173.828 32.5681 174.07 32.4701 174.357 32.4701C174.644 32.4701 174.886 32.5616 175.082 32.7444C175.278 32.9273 175.376 33.1558 175.376 33.4301C175.376 33.7175 175.278 33.9591 175.082 34.155C174.899 34.3509 174.657 34.4489 174.357 34.4489ZM185.359 47.0068V44.7343L185.3 44.362V40.5613C185.3 39.6862 185.052 39.0136 184.555 38.5434C184.072 38.0732 183.347 37.8381 182.381 37.8381C181.715 37.8381 181.081 37.9492 180.48 38.1712C179.88 38.3932 179.37 38.6871 178.952 39.0528L178.325 38.0145C178.848 37.5704 179.475 37.2308 180.206 36.9957C180.937 36.7476 181.708 36.6235 182.518 36.6235C183.85 36.6235 184.875 36.9565 185.594 37.6226C186.325 38.2757 186.691 39.2748 186.691 40.6201V47.0068H185.359ZM181.813 47.1048C181.042 47.1048 180.369 46.9807 179.795 46.7326C179.233 46.4713 178.802 46.1187 178.502 45.6746C178.201 45.2175 178.051 44.6951 178.051 44.1073C178.051 43.5718 178.175 43.0886 178.423 42.6576C178.684 42.2135 179.102 41.8609 179.677 41.5997C180.265 41.3254 181.048 41.1882 182.028 41.1882H185.574V42.2266H182.067C181.075 42.2266 180.382 42.4029 179.991 42.7555C179.612 43.1082 179.422 43.5457 179.422 44.0682C179.422 44.6559 179.651 45.1261 180.108 45.4787C180.565 45.8314 181.205 46.0077 182.028 46.0077C182.812 46.0077 183.484 45.8314 184.046 45.4787C184.621 45.113 185.039 44.5906 185.3 43.9114L185.613 44.8714C185.352 45.5506 184.895 46.0926 184.242 46.4975C183.602 46.9023 182.792 47.1048 181.813 47.1048ZM199.691 47.1048C198.711 47.1048 197.83 46.8828 197.046 46.4387C196.275 45.9946 195.668 45.3808 195.224 44.5971C194.78 43.8004 194.558 42.8861 194.558 41.8543C194.558 40.8095 194.78 39.8952 195.224 39.1116C195.668 38.3279 196.275 37.7206 197.046 37.2896C197.83 36.8455 198.711 36.6235 199.691 36.6235C200.592 36.6235 201.395 36.8259 202.1 37.2308C202.819 37.6357 203.387 38.23 203.805 39.0136C204.236 39.7842 204.451 40.7311 204.451 41.8543C204.451 42.9645 204.242 43.9114 203.824 44.6951C203.407 45.4787 202.838 46.0795 202.12 46.4975C201.415 46.9023 200.605 47.1048 199.691 47.1048ZM199.789 45.8705C200.52 45.8705 201.173 45.7073 201.748 45.3808C202.336 45.0412 202.793 44.571 203.119 43.9702C203.459 43.3563 203.629 42.6511 203.629 41.8543C203.629 41.0446 203.459 40.3393 203.119 39.7385C202.793 39.1377 202.336 38.674 201.748 38.3475C201.173 38.0079 200.52 37.8381 199.789 37.8381C199.07 37.8381 198.424 38.0079 197.849 38.3475C197.274 38.674 196.817 39.1377 196.478 39.7385C196.138 40.3393 195.968 41.0446 195.968 41.8543C195.968 42.6511 196.138 43.3563 196.478 43.9702C196.817 44.571 197.274 45.0412 197.849 45.3808C198.424 45.7073 199.07 45.8705 199.789 45.8705ZM203.668 47.0068V43.9114L203.805 41.8348L203.609 39.7581V32.4701H205V47.0068H203.668ZM213.243 47.1048C212.172 47.1048 211.231 46.8828 210.422 46.4387C209.612 45.9816 208.978 45.3612 208.521 44.5775C208.064 43.7808 207.835 42.8731 207.835 41.8543C207.835 40.8356 208.051 39.9344 208.482 39.1508C208.926 38.3671 209.527 37.7532 210.284 37.3092C211.055 36.8521 211.917 36.6235 212.87 36.6235C213.837 36.6235 214.692 36.8455 215.437 37.2896C216.194 37.7206 216.789 38.3345 217.22 39.1312C217.651 39.9148 217.866 40.8225 217.866 41.8543C217.866 41.9196 217.86 41.9915 217.847 42.0698C217.847 42.1352 217.847 42.207 217.847 42.2854H208.893V41.247H217.102L216.554 41.6584C216.554 40.914 216.39 40.2544 216.064 39.6797C215.75 39.092 215.319 38.6349 214.771 38.3083C214.222 37.9818 213.589 37.8186 212.87 37.8186C212.165 37.8186 211.532 37.9818 210.97 38.3083C210.408 38.6349 209.971 39.092 209.657 39.6797C209.344 40.2675 209.187 40.9401 209.187 41.6976V41.9131C209.187 42.6968 209.357 43.389 209.697 43.9898C210.049 44.5775 210.533 45.0412 211.146 45.3808C211.773 45.7073 212.485 45.8705 213.282 45.8705C213.909 45.8705 214.49 45.7595 215.025 45.5375C215.574 45.3155 216.044 44.9759 216.436 44.5188L217.22 45.4199C216.763 45.9685 216.188 46.3864 215.496 46.6738C214.816 46.9611 214.065 47.1048 213.243 47.1048ZM220.697 47.0068V32.4701H222.088V47.0068H220.697ZM225.959 47.0068V32.4701H227.35V47.0068H225.959ZM237.666 47.0068V44.7343L237.607 44.362V40.5613C237.607 39.6862 237.359 39.0136 236.862 38.5434C236.379 38.0732 235.654 37.8381 234.688 37.8381C234.022 37.8381 233.388 37.9492 232.787 38.1712C232.187 38.3932 231.677 38.6871 231.259 39.0528L230.632 38.0145C231.155 37.5704 231.782 37.2308 232.513 36.9957C233.244 36.7476 234.015 36.6235 234.825 36.6235C236.157 36.6235 237.182 36.9565 237.901 37.6226C238.632 38.2757 238.998 39.2748 238.998 40.6201V47.0068H237.666ZM234.12 47.1048C233.349 47.1048 232.676 46.9807 232.102 46.7326C231.54 46.4713 231.109 46.1187 230.809 45.6746C230.508 45.2175 230.358 44.6951 230.358 44.1073C230.358 43.5718 230.482 43.0886 230.73 42.6576C230.991 42.2135 231.409 41.8609 231.984 41.5997C232.572 41.3254 233.356 41.1882 234.335 41.1882H237.881V42.2266H234.374C233.382 42.2266 232.689 42.4029 232.298 42.7555C231.919 43.1082 231.729 43.5457 231.729 44.0682C231.729 44.6559 231.958 45.1261 232.415 45.4787C232.872 45.8314 233.512 46.0077 234.335 46.0077C235.119 46.0077 235.791 45.8314 236.353 45.4787C236.928 45.113 237.346 44.5906 237.607 43.9114L237.92 44.8714C237.659 45.5506 237.202 46.0926 236.549 46.4975C235.909 46.9023 235.099 47.1048 234.12 47.1048ZM248.138 47.0068V35.4284C248.138 34.5142 248.406 33.7762 248.942 33.2146C249.477 32.653 250.248 32.3722 251.253 32.3722C251.645 32.3722 252.024 32.4244 252.39 32.5289C252.755 32.6334 253.062 32.7967 253.31 33.0187L252.84 34.057C252.644 33.8872 252.416 33.7632 252.155 33.6848C251.893 33.5934 251.612 33.5477 251.312 33.5477C250.724 33.5477 250.274 33.7109 249.96 34.0374C249.647 34.364 249.49 34.8472 249.49 35.4872V37.0545L249.529 37.701V47.0068H248.138ZM246.297 37.8773V36.7214H252.664V37.8773H246.297ZM260.796 47.0068V44.7343L260.737 44.362V40.5613C260.737 39.6862 260.489 39.0136 259.993 38.5434C259.51 38.0732 258.785 37.8381 257.818 37.8381C257.152 37.8381 256.519 37.9492 255.918 38.1712C255.317 38.3932 254.808 38.6871 254.39 39.0528L253.763 38.0145C254.285 37.5704 254.912 37.2308 255.644 36.9957C256.375 36.7476 257.146 36.6235 257.955 36.6235C259.288 36.6235 260.313 36.9565 261.031 37.6226C261.763 38.2757 262.128 39.2748 262.128 40.6201V47.0068H260.796ZM257.25 47.1048C256.48 47.1048 255.807 46.9807 255.232 46.7326C254.671 46.4713 254.24 46.1187 253.939 45.6746C253.639 45.2175 253.489 44.6951 253.489 44.1073C253.489 43.5718 253.613 43.0886 253.861 42.6576C254.122 42.2135 254.54 41.8609 255.115 41.5997C255.703 41.3254 256.486 41.1882 257.466 41.1882H261.012V42.2266H257.505C256.512 42.2266 255.82 42.4029 255.428 42.7555C255.049 43.1082 254.86 43.5457 254.86 44.0682C254.86 44.6559 255.089 45.1261 255.546 45.4787C256.003 45.8314 256.643 46.0077 257.466 46.0077C258.249 46.0077 258.922 45.8314 259.484 45.4787C260.058 45.113 260.476 44.5906 260.737 43.9114L261.051 44.8714C260.79 45.5506 260.333 46.0926 259.68 46.4975C259.04 46.9023 258.23 47.1048 257.25 47.1048ZM278.758 36.6235C279.594 36.6235 280.319 36.7867 280.933 37.1133C281.56 37.4267 282.043 37.91 282.383 38.563C282.735 39.2161 282.912 40.0389 282.912 41.0315V47.0068H281.521V41.1687C281.521 40.0846 281.259 39.2683 280.737 38.7197C280.228 38.1581 279.503 37.8773 278.562 37.8773C277.857 37.8773 277.243 38.0275 276.721 38.3279C276.211 38.6153 275.813 39.0397 275.526 39.6014C275.251 40.1499 275.114 40.816 275.114 41.5997V47.0068H273.723V41.1687C273.723 40.0846 273.462 39.2683 272.94 38.7197C272.417 38.1581 271.686 37.8773 270.745 37.8773C270.053 37.8773 269.446 38.0275 268.924 38.3279C268.401 38.6153 267.996 39.0397 267.709 39.6014C267.435 40.1499 267.297 40.816 267.297 41.5997V47.0068H265.906V36.7214H267.239V39.5034L267.023 39.0136C267.337 38.2692 267.839 37.6879 268.532 37.27C269.237 36.839 270.066 36.6235 271.02 36.6235C272.025 36.6235 272.881 36.8782 273.586 37.3875C274.292 37.8839 274.749 38.6349 274.958 39.6405L274.409 39.425C274.709 38.5891 275.238 37.9165 275.996 37.4071C276.767 36.8847 277.687 36.6235 278.758 36.6235ZM286.684 47.0068V36.7214H288.075V47.0068H286.684ZM287.389 34.4489C287.102 34.4489 286.86 34.3509 286.664 34.155C286.468 33.9591 286.37 33.724 286.37 33.4497C286.37 33.1754 286.468 32.9469 286.664 32.764C286.86 32.5681 287.102 32.4701 287.389 32.4701C287.677 32.4701 287.918 32.5616 288.114 32.7444C288.31 32.9273 288.408 33.1558 288.408 33.4301C288.408 33.7175 288.31 33.9591 288.114 34.155C287.931 34.3509 287.69 34.4489 287.389 34.4489ZM296.334 50.9055C295.393 50.9055 294.492 50.7684 293.63 50.4941C292.768 50.2198 292.069 49.828 291.534 49.3186L292.239 48.2607C292.722 48.6917 293.317 49.0313 294.022 49.2794C294.74 49.5406 295.498 49.6712 296.294 49.6712C297.601 49.6712 298.56 49.3643 299.174 48.7505C299.788 48.1497 300.095 47.2093 300.095 45.9293V43.3629L300.291 41.5997L300.154 39.8364V36.7214H301.486V45.753C301.486 47.5293 301.049 48.8288 300.174 49.6517C299.311 50.4875 298.032 50.9055 296.334 50.9055ZM296.079 46.615C295.099 46.615 294.218 46.406 293.434 45.9881C292.65 45.5571 292.03 44.9628 291.573 44.2053C291.129 43.4478 290.907 42.5792 290.907 41.5997C290.907 40.6201 291.129 39.7581 291.573 39.0136C292.03 38.2561 292.65 37.6684 293.434 37.2504C294.218 36.8325 295.099 36.6235 296.079 36.6235C296.993 36.6235 297.816 36.8129 298.547 37.1916C299.279 37.5704 299.86 38.132 300.291 38.8765C300.722 39.6209 300.938 40.5287 300.938 41.5997C300.938 42.6706 300.722 43.5784 300.291 44.3228C299.86 45.0673 299.279 45.6355 298.547 46.0273C297.816 46.4191 296.993 46.615 296.079 46.615ZM296.216 45.3808C296.974 45.3808 297.646 45.224 298.234 44.9106C298.822 44.5841 299.285 44.14 299.625 43.5784C299.965 43.0037 300.134 42.3441 300.134 41.5997C300.134 40.8552 299.965 40.2022 299.625 39.6405C299.285 39.0789 298.822 38.6414 298.234 38.3279C297.646 38.0014 296.974 37.8381 296.216 37.8381C295.472 37.8381 294.799 38.0014 294.198 38.3279C293.61 38.6414 293.147 39.0789 292.807 39.6405C292.481 40.2022 292.317 40.8552 292.317 41.5997C292.317 42.3441 292.481 43.0037 292.807 43.5784C293.147 44.14 293.61 44.5841 294.198 44.9106C294.799 45.224 295.472 45.3808 296.216 45.3808ZM305.357 47.0068V32.4701H306.748V47.0068H305.357ZM310.618 47.0068V36.7214H312.009V47.0068H310.618ZM311.323 34.4489C311.036 34.4489 310.794 34.3509 310.598 34.155C310.403 33.9591 310.305 33.724 310.305 33.4497C310.305 33.1754 310.403 32.9469 310.598 32.764C310.794 32.5681 311.036 32.4701 311.323 32.4701C311.611 32.4701 311.852 32.5616 312.048 32.7444C312.244 32.9273 312.342 33.1558 312.342 33.4301C312.342 33.7175 312.244 33.9591 312.048 34.155C311.865 34.3509 311.624 34.4489 311.323 34.4489ZM322.325 47.0068V44.7343L322.266 44.362V40.5613C322.266 39.6862 322.018 39.0136 321.522 38.5434C321.038 38.0732 320.314 37.8381 319.347 37.8381C318.681 37.8381 318.047 37.9492 317.447 38.1712C316.846 38.3932 316.337 38.6871 315.919 39.0528L315.292 38.0145C315.814 37.5704 316.441 37.2308 317.172 36.9957C317.904 36.7476 318.674 36.6235 319.484 36.6235C320.816 36.6235 321.842 36.9565 322.56 37.6226C323.291 38.2757 323.657 39.2748 323.657 40.6201V47.0068H322.325ZM318.779 47.1048C318.008 47.1048 317.336 46.9807 316.761 46.7326C316.199 46.4713 315.768 46.1187 315.468 45.6746C315.168 45.2175 315.017 44.6951 315.017 44.1073C315.017 43.5718 315.141 43.0886 315.39 42.6576C315.651 42.2135 316.069 41.8609 316.643 41.5997C317.231 41.3254 318.015 41.1882 318.994 41.1882H322.54V42.2266H319.034C318.041 42.2266 317.349 42.4029 316.957 42.7555C316.578 43.1082 316.389 43.5457 316.389 44.0682C316.389 44.6559 316.617 45.1261 317.074 45.4787C317.532 45.8314 318.172 46.0077 318.994 46.0077C319.778 46.0077 320.451 45.8314 321.012 45.4787C321.587 45.113 322.005 44.5906 322.266 43.9114L322.58 44.8714C322.318 45.5506 321.861 46.0926 321.208 46.4975C320.568 46.9023 319.758 47.1048 318.779 47.1048Z" fill="white"/>
</svg>
