<svg width="326" height="56" viewBox="0 0 326 56" fill="none" xmlns="http://www.w3.org/2000/svg">
<path fill-rule="evenodd" clip-rule="evenodd" d="M24.5295 0.116791C24.2956 0.167193 23.2907 0.358808 22.2965 0.542766C18.6709 1.21374 14.4873 3.09458 11.3037 5.48476C5.22855 10.0459 1.46963 16.3396 0.269544 23.9599C-0.382499 28.1 0.17767 33.6829 1.63403 37.5576C2.04235 38.6445 2.04278 38.669 1.64657 38.7949C1.42412 38.8653 1.24229 39.0103 1.24229 39.1168C1.24229 39.4184 5.76724 42.7514 5.92675 42.567C6.00458 42.477 6.02372 41.1295 5.96907 39.5726C5.88868 37.2768 5.81446 36.7643 5.57648 36.8611C5.41506 36.9268 5.14944 37.0346 4.98611 37.101C4.77047 37.1886 4.56652 36.8249 4.24113 35.7718C2.38432 29.7637 2.58147 24.2202 4.85362 18.5501C8.13871 10.3517 16.1091 4.23066 24.9168 3.14264C29.6066 2.56312 35.1083 3.48759 39.1692 5.53729C42.0394 6.98599 45.7588 10.0033 47.5175 12.3095C47.9641 12.895 48.3846 13.3741 48.452 13.3741C48.5192 13.3741 49.1217 13.0317 49.7905 12.6134L51.0066 11.8529L50.0766 10.6462C48.8403 9.04229 45.9163 6.25952 44.2014 5.05475C40.6207 2.5393 36.9234 1.03254 32.5046 0.287989C30.8483 0.00896726 25.5593 -0.104598 24.5295 0.116791ZM50.0232 13.8261C50.0964 14.1916 50.1561 15.5291 50.1561 16.7981V19.1056L50.6991 18.8993C51.192 18.7117 51.2694 18.7587 51.5417 19.4101C52.1571 20.8833 52.7105 23.4195 52.9476 25.855C53.8999 35.6333 48.6249 45.2983 39.7353 50.0627C33.113 53.6117 25.189 53.9669 18.2558 51.0252C15.191 49.725 11.4408 47.0458 9.43004 44.72C8.96217 44.179 8.34011 43.4623 8.04769 43.1274L7.51602 42.5187L6.30019 43.2858C4.86468 44.1918 4.82895 44.0354 7.05006 46.5758C14.3831 54.9634 26.347 58.1343 37.0749 54.533C40.3446 53.4354 44.242 51.1301 47.1581 48.5685C48.3863 47.4898 51.061 44.1365 52.1299 42.3354C55.429 36.7764 56.7335 30.2768 55.7989 24.0542C55.489 21.9915 54.6077 18.6081 54.1647 17.7802C53.975 17.4259 54.0161 17.2864 54.3931 17.0018L54.8527 16.6552L54.3652 16.2114C53.5146 15.4366 50.3409 13.1615 50.111 13.1615C49.9773 13.1615 49.9426 13.4231 50.0232 13.8261Z" fill="#163872"/>
<circle cx="27.9659" cy="27.966" r="21.7986" fill="#DF3A33"/>
<path d="M83.2829 23.1175C82.2511 23.1175 81.2976 22.9478 80.4226 22.6082C79.5475 22.2555 78.79 21.7658 78.15 21.1388C77.51 20.5119 77.0072 19.774 76.6415 18.925C76.2888 18.0761 76.1125 17.1488 76.1125 16.1431C76.1125 15.1374 76.2888 14.2101 76.6415 13.3611C77.0072 12.5122 77.51 11.7742 78.15 11.1473C78.803 10.5204 79.5671 10.0371 80.4422 9.69756C81.3172 9.34492 82.2707 9.1686 83.3025 9.1686C84.2951 9.1686 85.2289 9.33839 86.104 9.67797C86.9791 10.0045 87.717 10.5008 88.3178 11.1669L87.397 12.0877C86.8354 11.513 86.215 11.1016 85.5359 10.8534C84.8567 10.5922 84.1253 10.4616 83.3417 10.4616C82.5188 10.4616 81.7548 10.6053 81.0495 10.8926C80.3442 11.1669 79.7303 11.5653 79.2079 12.0877C78.6855 12.5971 78.2741 13.1979 77.9737 13.8901C77.6863 14.5692 77.5427 15.3202 77.5427 16.1431C77.5427 16.9659 77.6863 17.7234 77.9737 18.4157C78.2741 19.0948 78.6855 19.6956 79.2079 20.218C79.7303 20.7274 80.3442 21.1258 81.0495 21.4131C81.7548 21.6874 82.5188 21.8245 83.3417 21.8245C84.1253 21.8245 84.8567 21.6939 85.5359 21.4327C86.215 21.1715 86.8354 20.7535 87.397 20.1789L88.3178 21.0997C87.717 21.7658 86.9791 22.2686 86.104 22.6082C85.2289 22.9478 84.2886 23.1175 83.2829 23.1175ZM95.0241 23.098C93.9532 23.098 93.0128 22.8759 92.203 22.4319C91.3932 21.9747 90.7598 21.3543 90.3027 20.5707C89.8455 19.774 89.617 18.8663 89.617 17.8475C89.617 16.8288 89.8325 15.9276 90.2635 15.1439C90.7075 14.3603 91.3083 13.7464 92.0659 13.3023C92.8365 12.8452 93.6985 12.6167 94.6519 12.6167C95.6184 12.6167 96.4739 12.8387 97.2184 13.2828C97.9759 13.7138 98.5702 14.3276 99.0012 15.1243C99.4322 15.908 99.6477 16.8157 99.6477 17.8475C99.6477 17.9128 99.6411 17.9846 99.6281 18.063C99.6281 18.1283 99.6281 18.2002 99.6281 18.2785H90.6749V17.2402H98.8836L98.3351 17.6516C98.3351 16.9071 98.1718 16.2476 97.8453 15.6729C97.5318 15.0851 97.1008 14.628 96.5523 14.3015C96.0037 13.975 95.3703 13.8117 94.6519 13.8117C93.9466 13.8117 93.3132 13.975 92.7516 14.3015C92.1899 14.628 91.7524 15.0851 91.439 15.6729C91.1255 16.2606 90.9688 16.9333 90.9688 17.6908V17.9063C90.9688 18.6899 91.1386 19.3822 91.4781 19.983C91.8308 20.5707 92.314 21.0343 92.9279 21.3739C93.5548 21.7004 94.2666 21.8637 95.0633 21.8637C95.6902 21.8637 96.2715 21.7527 96.8069 21.5307C97.3555 21.3086 97.8257 20.969 98.2175 20.5119L99.0012 21.4131C98.544 21.9617 97.9694 22.3796 97.2771 22.6669C96.598 22.9543 95.847 23.098 95.0241 23.098ZM107.729 12.6167C108.565 12.6167 109.297 12.7799 109.924 13.1064C110.564 13.4199 111.06 13.9031 111.413 14.5562C111.778 15.2092 111.961 16.0321 111.961 17.0247V23H110.57V17.1618C110.57 16.0778 110.296 15.2615 109.747 14.7129C109.212 14.1513 108.454 13.8705 107.475 13.8705C106.743 13.8705 106.103 14.0207 105.555 14.3211C105.019 14.6084 104.601 15.0329 104.301 15.5945C104.014 16.1431 103.87 16.8092 103.87 17.5928V23H102.479V12.7146H103.811V15.5357L103.596 15.0068C103.922 14.2623 104.445 13.6811 105.163 13.2632C105.881 12.8322 106.737 12.6167 107.729 12.6167ZM118.97 23.098C118.004 23.098 117.259 22.8367 116.737 22.3143C116.215 21.7919 115.953 21.0539 115.953 20.1005V10.442H117.344V20.0221C117.344 20.6229 117.495 21.0866 117.795 21.4131C118.108 21.7396 118.552 21.9029 119.127 21.9029C119.741 21.9029 120.25 21.7266 120.655 21.3739L121.145 22.3731C120.871 22.6212 120.538 22.8041 120.146 22.9216C119.767 23.0392 119.375 23.098 118.97 23.098ZM114.112 13.8705V12.7146H120.479V13.8705H114.112ZM123.677 23V12.7146H125.009V15.5162L124.872 15.0264C125.16 14.2427 125.643 13.6485 126.322 13.2436C127.001 12.8256 127.844 12.6167 128.849 12.6167V13.9684C128.797 13.9684 128.745 13.9684 128.693 13.9684C128.64 13.9554 128.588 13.9489 128.536 13.9489C127.452 13.9489 126.603 14.2819 125.989 14.948C125.375 15.601 125.068 16.5349 125.068 17.7496V23H123.677ZM135.484 23.098C134.492 23.098 133.597 22.8759 132.8 22.4319C132.017 21.9747 131.396 21.3543 130.939 20.5707C130.482 19.774 130.253 18.8663 130.253 17.8475C130.253 16.8157 130.482 15.908 130.939 15.1243C131.396 14.3407 132.017 13.7268 132.8 13.2828C133.584 12.8387 134.479 12.6167 135.484 12.6167C136.503 12.6167 137.404 12.8387 138.188 13.2828C138.985 13.7268 139.605 14.3407 140.049 15.1243C140.506 15.908 140.735 16.8157 140.735 17.8475C140.735 18.8663 140.506 19.774 140.049 20.5707C139.605 21.3543 138.985 21.9747 138.188 22.4319C137.391 22.8759 136.49 23.098 135.484 23.098ZM135.484 21.8637C136.229 21.8637 136.888 21.7004 137.463 21.3739C138.038 21.0343 138.488 20.5642 138.815 19.9634C139.154 19.3495 139.324 18.6442 139.324 17.8475C139.324 17.0377 139.154 16.3325 138.815 15.7317C138.488 15.1309 138.038 14.6672 137.463 14.3407C136.888 14.0011 136.235 13.8313 135.504 13.8313C134.772 13.8313 134.119 14.0011 133.545 14.3407C132.97 14.6672 132.513 15.1309 132.173 15.7317C131.834 16.3325 131.664 17.0377 131.664 17.8475C131.664 18.6442 131.834 19.3495 132.173 19.9634C132.513 20.5642 132.97 21.0343 133.545 21.3739C134.119 21.7004 134.766 21.8637 135.484 21.8637ZM148.996 23V9.28614H154.912C156.44 9.28614 157.622 9.59307 158.458 10.2069C159.307 10.8208 159.732 11.6893 159.732 12.8126C159.732 13.557 159.555 14.1839 159.203 14.6933C158.863 15.2027 158.393 15.588 157.792 15.8492C157.205 16.1104 156.558 16.241 155.853 16.241L156.186 15.7708C157.061 15.7708 157.812 15.908 158.439 16.1823C159.079 16.4435 159.575 16.8418 159.928 17.3773C160.28 17.8998 160.457 18.5528 160.457 19.3364C160.457 20.4989 160.026 21.4001 159.164 22.04C158.315 22.68 157.028 23 155.304 23H148.996ZM150.446 21.8049H155.285C156.486 21.8049 157.407 21.6025 158.047 21.1976C158.687 20.7797 159.007 20.1201 159.007 19.2189C159.007 18.3308 158.687 17.6842 158.047 17.2794C157.407 16.8614 156.486 16.6524 155.285 16.6524H150.289V15.4574H154.814C155.912 15.4574 156.76 15.2484 157.361 14.8305C157.975 14.4125 158.282 13.7921 158.282 12.9693C158.282 12.1334 157.975 11.513 157.361 11.1081C156.76 10.6902 155.912 10.4812 154.814 10.4812H150.446V21.8049ZM167.664 23.098C166.672 23.098 165.777 22.8759 164.98 22.4319C164.197 21.9747 163.576 21.3543 163.119 20.5707C162.662 19.774 162.434 18.8663 162.434 17.8475C162.434 16.8157 162.662 15.908 163.119 15.1243C163.576 14.3407 164.197 13.7268 164.98 13.2828C165.764 12.8387 166.659 12.6167 167.664 12.6167C168.683 12.6167 169.584 12.8387 170.368 13.2828C171.165 13.7268 171.785 14.3407 172.229 15.1243C172.686 15.908 172.915 16.8157 172.915 17.8475C172.915 18.8663 172.686 19.774 172.229 20.5707C171.785 21.3543 171.165 21.9747 170.368 22.4319C169.571 22.8759 168.67 23.098 167.664 23.098ZM167.664 21.8637C168.409 21.8637 169.068 21.7004 169.643 21.3739C170.218 21.0343 170.668 20.5642 170.995 19.9634C171.335 19.3495 171.504 18.6442 171.504 17.8475C171.504 17.0377 171.335 16.3325 170.995 15.7317C170.668 15.1309 170.218 14.6672 169.643 14.3407C169.068 14.0011 168.415 13.8313 167.684 13.8313C166.953 13.8313 166.3 14.0011 165.725 14.3407C165.15 14.6672 164.693 15.1309 164.354 15.7317C164.014 16.3325 163.844 17.0377 163.844 17.8475C163.844 18.6442 164.014 19.3495 164.354 19.9634C164.693 20.5642 165.15 21.0343 165.725 21.3739C166.3 21.7004 166.946 21.8637 167.664 21.8637ZM175.755 23V8.46331H177.146V23H175.755ZM185.209 23.098C184.216 23.098 183.321 22.8759 182.525 22.4319C181.741 21.9747 181.12 21.3543 180.663 20.5707C180.206 19.774 179.978 18.8663 179.978 17.8475C179.978 16.8157 180.206 15.908 180.663 15.1243C181.12 14.3407 181.741 13.7268 182.525 13.2828C183.308 12.8387 184.203 12.6167 185.209 12.6167C186.227 12.6167 187.128 12.8387 187.912 13.2828C188.709 13.7268 189.329 14.3407 189.773 15.1243C190.23 15.908 190.459 16.8157 190.459 17.8475C190.459 18.8663 190.23 19.774 189.773 20.5707C189.329 21.3543 188.709 21.9747 187.912 22.4319C187.115 22.8759 186.214 23.098 185.209 23.098ZM185.209 21.8637C185.953 21.8637 186.613 21.7004 187.187 21.3739C187.762 21.0343 188.213 20.5642 188.539 19.9634C188.879 19.3495 189.048 18.6442 189.048 17.8475C189.048 17.0377 188.879 16.3325 188.539 15.7317C188.213 15.1309 187.762 14.6672 187.187 14.3407C186.613 14.0011 185.96 13.8313 185.228 13.8313C184.497 13.8313 183.844 14.0011 183.269 14.3407C182.694 14.6672 182.237 15.1309 181.898 15.7317C181.558 16.3325 181.388 17.0377 181.388 17.8475C181.388 18.6442 181.558 19.3495 181.898 19.9634C182.237 20.5642 182.694 21.0343 183.269 21.3739C183.844 21.7004 184.49 21.8637 185.209 21.8637ZM197.687 26.8987C196.747 26.8987 195.846 26.7615 194.984 26.4872C194.122 26.213 193.423 25.8211 192.887 25.3118L193.593 24.2538C194.076 24.6848 194.67 25.0244 195.375 25.2726C196.094 25.5338 196.851 25.6644 197.648 25.6644C198.954 25.6644 199.914 25.3575 200.528 24.7436C201.142 24.1428 201.449 23.2024 201.449 21.9225V19.356L201.645 17.5928L201.507 15.8296V12.7146H202.84V21.7462C202.84 23.5224 202.402 24.822 201.527 25.6448C200.665 26.4807 199.385 26.8987 197.687 26.8987ZM197.433 22.6082C196.453 22.6082 195.571 22.3992 194.788 21.9813C194.004 21.5502 193.384 20.956 192.927 20.1985C192.482 19.4409 192.26 18.5724 192.26 17.5928C192.26 16.6133 192.482 15.7512 192.927 15.0068C193.384 14.2493 194.004 13.6615 194.788 13.2436C195.571 12.8256 196.453 12.6167 197.433 12.6167C198.347 12.6167 199.17 12.806 199.901 13.1848C200.632 13.5636 201.214 14.1252 201.645 14.8696C202.076 15.6141 202.291 16.5218 202.291 17.5928C202.291 18.6638 202.076 19.5715 201.645 20.316C201.214 21.0605 200.632 21.6286 199.901 22.0204C199.17 22.4123 198.347 22.6082 197.433 22.6082ZM197.57 21.3739C198.327 21.3739 199 21.2172 199.588 20.9037C200.175 20.5772 200.639 20.1332 200.979 19.5715C201.318 18.9969 201.488 18.3373 201.488 17.5928C201.488 16.8484 201.318 16.1953 200.979 15.6337C200.639 15.0721 200.175 14.6345 199.588 14.3211C199 13.9946 198.327 13.8313 197.57 13.8313C196.825 13.8313 196.153 13.9946 195.552 14.3211C194.964 14.6345 194.5 15.0721 194.161 15.6337C193.834 16.1953 193.671 16.8484 193.671 17.5928C193.671 18.3373 193.834 18.9969 194.161 19.5715C194.5 20.1332 194.964 20.5772 195.552 20.9037C196.153 21.2172 196.825 21.3739 197.57 21.3739ZM211.961 12.6167C212.797 12.6167 213.528 12.7799 214.155 13.1064C214.795 13.4199 215.291 13.9031 215.644 14.5562C216.01 15.2092 216.192 16.0321 216.192 17.0247V23H214.802V17.1618C214.802 16.0778 214.527 15.2615 213.979 14.7129C213.443 14.1513 212.686 13.8705 211.706 13.8705C210.975 13.8705 210.335 14.0207 209.786 14.3211C209.251 14.6084 208.833 15.0329 208.532 15.5945C208.245 16.1431 208.101 16.8092 208.101 17.5928V23H206.71V12.7146H208.043V15.5357L207.827 15.0068C208.154 14.2623 208.676 13.6811 209.394 13.2632C210.113 12.8322 210.968 12.6167 211.961 12.6167ZM224.319 23.098C223.248 23.098 222.307 22.8759 221.497 22.4319C220.688 21.9747 220.054 21.3543 219.597 20.5707C219.14 19.774 218.911 18.8663 218.911 17.8475C218.911 16.8288 219.127 15.9276 219.558 15.1439C220.002 14.3603 220.603 13.7464 221.36 13.3023C222.131 12.8452 222.993 12.6167 223.946 12.6167C224.913 12.6167 225.768 12.8387 226.513 13.2828C227.27 13.7138 227.865 14.3276 228.296 15.1243C228.727 15.908 228.942 16.8157 228.942 17.8475C228.942 17.9128 228.936 17.9846 228.923 18.063C228.923 18.1283 228.923 18.2002 228.923 18.2785H219.969V17.2402H228.178L227.629 17.6516C227.629 16.9071 227.466 16.2476 227.14 15.6729C226.826 15.0851 226.395 14.628 225.847 14.3015C225.298 13.975 224.665 13.8117 223.946 13.8117C223.241 13.8117 222.608 13.975 222.046 14.3015C221.484 14.628 221.047 15.0851 220.733 15.6729C220.42 16.2606 220.263 16.9333 220.263 17.6908V17.9063C220.263 18.6899 220.433 19.3822 220.773 19.983C221.125 20.5707 221.608 21.0343 222.222 21.3739C222.849 21.7004 223.561 21.8637 224.358 21.8637C224.985 21.8637 225.566 21.7527 226.101 21.5307C226.65 21.3086 227.12 20.969 227.512 20.5119L228.296 21.4131C227.838 21.9617 227.264 22.3796 226.572 22.6669C225.892 22.9543 225.141 23.098 224.319 23.098ZM234.536 23.098C233.687 23.098 232.884 22.9804 232.126 22.7453C231.368 22.4972 230.774 22.1902 230.343 21.8245L230.97 20.7274C231.388 21.0409 231.924 21.3152 232.577 21.5502C233.23 21.7723 233.915 21.8833 234.634 21.8833C235.613 21.8833 236.318 21.7331 236.75 21.4327C237.181 21.1192 237.396 20.7078 237.396 20.1985C237.396 19.8197 237.272 19.5258 237.024 19.3168C236.789 19.0948 236.475 18.9316 236.083 18.8271C235.692 18.7095 235.254 18.6116 234.771 18.5332C234.288 18.4548 233.804 18.3634 233.321 18.2589C232.851 18.1544 232.42 18.0042 232.028 17.8083C231.636 17.5994 231.316 17.3185 231.068 16.9659C230.833 16.6133 230.715 16.1431 230.715 15.5553C230.715 14.9937 230.872 14.4909 231.186 14.0468C231.499 13.6027 231.956 13.2566 232.557 13.0085C233.171 12.7473 233.915 12.6167 234.79 12.6167C235.456 12.6167 236.123 12.7081 236.789 12.8909C237.455 13.0607 238.003 13.2893 238.434 13.5766L237.827 14.6933C237.37 14.3799 236.88 14.1578 236.358 14.0272C235.835 13.8836 235.313 13.8117 234.79 13.8117C233.863 13.8117 233.177 13.975 232.733 14.3015C232.302 14.615 232.087 15.0198 232.087 15.5162C232.087 15.908 232.204 16.2149 232.439 16.4369C232.688 16.659 233.008 16.8353 233.399 16.9659C233.804 17.0835 234.242 17.1814 234.712 17.2598C235.195 17.3381 235.672 17.4361 236.142 17.5536C236.625 17.6581 237.063 17.8083 237.455 18.0042C237.86 18.1871 238.18 18.4548 238.415 18.8075C238.663 19.1471 238.787 19.5977 238.787 20.1593C238.787 20.7601 238.617 21.2825 238.278 21.7266C237.951 22.1576 237.468 22.4972 236.828 22.7453C236.201 22.9804 235.437 23.098 234.536 23.098ZM245.708 23.098C244.637 23.098 243.697 22.8759 242.887 22.4319C242.077 21.9747 241.444 21.3543 240.987 20.5707C240.53 19.774 240.301 18.8663 240.301 17.8475C240.301 16.8288 240.517 15.9276 240.948 15.1439C241.392 14.3603 241.992 13.7464 242.75 13.3023C243.521 12.8452 244.383 12.6167 245.336 12.6167C246.302 12.6167 247.158 12.8387 247.902 13.2828C248.66 13.7138 249.254 14.3276 249.685 15.1243C250.116 15.908 250.332 16.8157 250.332 17.8475C250.332 17.9128 250.325 17.9846 250.312 18.063C250.312 18.1283 250.312 18.2002 250.312 18.2785H241.359V17.2402H249.568L249.019 17.6516C249.019 16.9071 248.856 16.2476 248.529 15.6729C248.216 15.0851 247.785 14.628 247.236 14.3015C246.688 13.975 246.054 13.8117 245.336 13.8117C244.631 13.8117 243.997 13.975 243.436 14.3015C242.874 14.628 242.436 15.0851 242.123 15.6729C241.81 16.2606 241.653 16.9333 241.653 17.6908V17.9063C241.653 18.6899 241.823 19.3822 242.162 19.983C242.515 20.5707 242.998 21.0343 243.612 21.3739C244.239 21.7004 244.951 21.8637 245.747 21.8637C246.374 21.8637 246.956 21.7527 247.491 21.5307C248.04 21.3086 248.51 20.969 248.902 20.5119L249.685 21.4131C249.228 21.9617 248.653 22.3796 247.961 22.6669C247.282 22.9543 246.531 23.098 245.708 23.098ZM81.1278 47.098C80.1483 47.098 79.2667 46.8759 78.483 46.4319C77.7124 45.9878 77.1051 45.3739 76.661 44.5903C76.217 43.7936 75.9949 42.8793 75.9949 41.8475C75.9949 40.8026 76.217 39.8884 76.661 39.1047C77.1051 38.3211 77.7124 37.7138 78.483 37.2828C79.2667 36.8387 80.1483 36.6167 81.1278 36.6167C82.029 36.6167 82.8323 36.8191 83.5376 37.224C84.2559 37.6289 84.8241 38.2231 85.242 39.0068C85.673 39.7774 85.8885 40.7243 85.8885 41.8475C85.8885 42.9577 85.6795 43.9046 85.2616 44.6882C84.8436 45.4719 84.2755 46.0727 83.5572 46.4906C82.8519 46.8955 82.0421 47.098 81.1278 47.098ZM81.2258 45.8637C81.9572 45.8637 82.6102 45.7004 83.1849 45.3739C83.7727 45.0343 84.2298 44.5642 84.5563 43.9634C84.8959 43.3495 85.0657 42.6442 85.0657 41.8475C85.0657 41.0377 84.8959 40.3325 84.5563 39.7317C84.2298 39.1309 83.7727 38.6672 83.1849 38.3407C82.6102 38.0011 81.9572 37.8313 81.2258 37.8313C80.5075 37.8313 79.8609 38.0011 79.2863 38.3407C78.7116 38.6672 78.2545 39.1309 77.9149 39.7317C77.5753 40.3325 77.4055 41.0377 77.4055 41.8475C77.4055 42.6442 77.5753 43.3495 77.9149 43.9634C78.2545 44.5642 78.7116 45.0343 79.2863 45.3739C79.8609 45.7004 80.5075 45.8637 81.2258 45.8637ZM85.1049 47V43.9046L85.242 41.8279L85.0461 39.7512V32.4633H86.4371V47H85.1049ZM90.3109 47V36.7146H91.7019V47H90.3109ZM91.0162 34.442C90.7289 34.442 90.4872 34.3441 90.2913 34.1482C90.0954 33.9522 89.9975 33.7172 89.9975 33.4429C89.9975 33.1686 90.0954 32.94 90.2913 32.7572C90.4872 32.5613 90.7289 32.4633 91.0162 32.4633C91.3035 32.4633 91.5452 32.5547 91.7411 32.7376C91.937 32.9204 92.035 33.149 92.035 33.4233C92.035 33.7106 91.937 33.9522 91.7411 34.1482C91.5582 34.3441 91.3166 34.442 91.0162 34.442ZM103.658 47V34.54H98.8385V33.2861H109.927V34.54H105.108V47H103.658ZM115.247 47.098C114.176 47.098 113.235 46.8759 112.426 46.4319C111.616 45.9747 110.982 45.3543 110.525 44.5707C110.068 43.774 109.84 42.8663 109.84 41.8475C109.84 40.8288 110.055 39.9276 110.486 39.1439C110.93 38.3603 111.531 37.7464 112.288 37.3023C113.059 36.8452 113.921 36.6167 114.874 36.6167C115.841 36.6167 116.696 36.8387 117.441 37.2828C118.198 37.7138 118.793 38.3276 119.224 39.1243C119.655 39.908 119.87 40.8157 119.87 41.8475C119.87 41.9128 119.864 41.9846 119.851 42.063C119.851 42.1283 119.851 42.2002 119.851 42.2785H110.897V41.2402H119.106L118.558 41.6516C118.558 40.9071 118.394 40.2476 118.068 39.6729C117.754 39.0851 117.323 38.628 116.775 38.3015C116.226 37.975 115.593 37.8117 114.874 37.8117C114.169 37.8117 113.536 37.975 112.974 38.3015C112.413 38.628 111.975 39.0851 111.662 39.6729C111.348 40.2606 111.191 40.9333 111.191 41.6908V41.9063C111.191 42.6899 111.361 43.3822 111.701 43.983C112.053 44.5707 112.537 45.0343 113.15 45.3739C113.777 45.7004 114.489 45.8637 115.286 45.8637C115.913 45.8637 116.494 45.7527 117.03 45.5307C117.578 45.3086 118.048 44.969 118.44 44.5119L119.224 45.4131C118.767 45.9617 118.192 46.3796 117.5 46.6669C116.821 46.9543 116.07 47.098 115.247 47.098ZM122.701 47V36.7146H124.034V39.5162L123.897 39.0264C124.184 38.2427 124.667 37.6485 125.346 37.2436C126.025 36.8256 126.868 36.6167 127.874 36.6167V37.9684C127.821 37.9684 127.769 37.9684 127.717 37.9684C127.665 37.9554 127.612 37.9489 127.56 37.9489C126.476 37.9489 125.627 38.2819 125.013 38.948C124.399 39.601 124.092 40.5349 124.092 41.7496V47H122.701ZM136.092 47V44.7274L136.033 44.3552V40.5545C136.033 39.6794 135.785 39.0068 135.289 38.5366C134.805 38.0664 134.081 37.8313 133.114 37.8313C132.448 37.8313 131.815 37.9423 131.214 38.1644C130.613 38.3864 130.104 38.6803 129.686 39.046L129.059 38.0076C129.581 37.5636 130.208 37.224 130.939 36.9889C131.671 36.7407 132.441 36.6167 133.251 36.6167C134.583 36.6167 135.609 36.9497 136.327 37.6158C137.058 38.2688 137.424 39.268 137.424 40.6133V47H136.092ZM132.546 47.098C131.775 47.098 131.103 46.9739 130.528 46.7257C129.966 46.4645 129.535 46.1119 129.235 45.6678C128.935 45.2107 128.784 44.6882 128.784 44.1005C128.784 43.565 128.908 43.0818 129.157 42.6507C129.418 42.2067 129.836 41.854 130.41 41.5928C130.998 41.3185 131.782 41.1814 132.761 41.1814H136.307V42.2197H132.801C131.808 42.2197 131.116 42.3961 130.724 42.7487C130.345 43.1013 130.156 43.5389 130.156 44.0613C130.156 44.6491 130.384 45.1192 130.841 45.4719C131.299 45.8245 131.939 46.0008 132.761 46.0008C133.545 46.0008 134.218 45.8245 134.779 45.4719C135.354 45.1062 135.772 44.5837 136.033 43.9046L136.347 44.8646C136.085 45.5437 135.628 46.0857 134.975 46.4906C134.335 46.8955 133.525 47.098 132.546 47.098ZM146.511 47.098C145.623 47.098 144.82 46.8955 144.102 46.4906C143.383 46.0727 142.809 45.4784 142.378 44.7078C141.96 43.9242 141.751 42.9707 141.751 41.8475C141.751 40.7243 141.96 39.7774 142.378 39.0068C142.796 38.2231 143.364 37.6289 144.082 37.224C144.8 36.8191 145.61 36.6167 146.511 36.6167C147.491 36.6167 148.366 36.8387 149.137 37.2828C149.92 37.7138 150.534 38.3276 150.978 39.1243C151.422 39.908 151.644 40.8157 151.644 41.8475C151.644 42.8924 151.422 43.8066 150.978 44.5903C150.534 45.3739 149.92 45.9878 149.137 46.4319C148.366 46.8759 147.491 47.098 146.511 47.098ZM141.202 50.8007V36.7146H142.534V39.81L142.397 41.8671L142.593 43.9438V50.8007H141.202ZM146.413 45.8637C147.145 45.8637 147.798 45.7004 148.373 45.3739C148.947 45.0343 149.404 44.5642 149.744 43.9634C150.084 43.3495 150.253 42.6442 150.253 41.8475C150.253 41.0508 150.084 40.352 149.744 39.7512C149.404 39.1504 148.947 38.6803 148.373 38.3407C147.798 38.0011 147.145 37.8313 146.413 37.8313C145.682 37.8313 145.022 38.0011 144.435 38.3407C143.86 38.6803 143.403 39.1504 143.063 39.7512C142.737 40.352 142.574 41.0508 142.574 41.8475C142.574 42.6442 142.737 43.3495 143.063 43.9634C143.403 44.5642 143.86 45.0343 144.435 45.3739C145.022 45.7004 145.682 45.8637 146.413 45.8637ZM154.48 47V36.7146H155.871V47H154.48ZM155.185 34.442C154.898 34.442 154.656 34.3441 154.46 34.1482C154.264 33.9522 154.166 33.7172 154.166 33.4429C154.166 33.1686 154.264 32.94 154.46 32.7572C154.656 32.5613 154.898 32.4633 155.185 32.4633C155.472 32.4633 155.714 32.5547 155.91 32.7376C156.106 32.9204 156.204 33.149 156.204 33.4233C156.204 33.7106 156.106 33.9522 155.91 34.1482C155.727 34.3441 155.486 34.442 155.185 34.442ZM166.187 47V44.7274L166.128 44.3552V40.5545C166.128 39.6794 165.88 39.0068 165.383 38.5366C164.9 38.0664 164.175 37.8313 163.209 37.8313C162.543 37.8313 161.909 37.9423 161.308 38.1644C160.708 38.3864 160.198 38.6803 159.78 39.046L159.153 38.0076C159.676 37.5636 160.303 37.224 161.034 36.9889C161.766 36.7407 162.536 36.6167 163.346 36.6167C164.678 36.6167 165.703 36.9497 166.422 37.6158C167.153 38.2688 167.519 39.268 167.519 40.6133V47H166.187ZM162.641 47.098C161.87 47.098 161.197 46.9739 160.623 46.7257C160.061 46.4645 159.63 46.1119 159.33 45.6678C159.029 45.2107 158.879 44.6882 158.879 44.1005C158.879 43.565 159.003 43.0818 159.251 42.6507C159.513 42.2067 159.931 41.854 160.505 41.5928C161.093 41.3185 161.877 41.1814 162.856 41.1814H166.402V42.2197H162.895C161.903 42.2197 161.21 42.3961 160.819 42.7487C160.44 43.1013 160.251 43.5389 160.251 44.0613C160.251 44.6491 160.479 45.1192 160.936 45.4719C161.393 45.8245 162.033 46.0008 162.856 46.0008C163.64 46.0008 164.312 45.8245 164.874 45.4719C165.449 45.1062 165.867 44.5837 166.128 43.9046L166.441 44.8646C166.18 45.5437 165.723 46.0857 165.07 46.4906C164.43 46.8955 163.62 47.098 162.641 47.098ZM180.519 47.098C179.539 47.098 178.658 46.8759 177.874 46.4319C177.103 45.9878 176.496 45.3739 176.052 44.5903C175.608 43.7936 175.386 42.8793 175.386 41.8475C175.386 40.8026 175.608 39.8884 176.052 39.1047C176.496 38.3211 177.103 37.7138 177.874 37.2828C178.658 36.8387 179.539 36.6167 180.519 36.6167C181.42 36.6167 182.223 36.8191 182.929 37.224C183.647 37.6289 184.215 38.2231 184.633 39.0068C185.064 39.7774 185.28 40.7243 185.28 41.8475C185.28 42.9577 185.071 43.9046 184.653 44.6882C184.235 45.4719 183.667 46.0727 182.948 46.4906C182.243 46.8955 181.433 47.098 180.519 47.098ZM180.617 45.8637C181.348 45.8637 182.001 45.7004 182.576 45.3739C183.164 45.0343 183.621 44.5642 183.947 43.9634C184.287 43.3495 184.457 42.6442 184.457 41.8475C184.457 41.0377 184.287 40.3325 183.947 39.7317C183.621 39.1309 183.164 38.6672 182.576 38.3407C182.001 38.0011 181.348 37.8313 180.617 37.8313C179.898 37.8313 179.252 38.0011 178.677 38.3407C178.103 38.6672 177.645 39.1309 177.306 39.7317C176.966 40.3325 176.797 41.0377 176.797 41.8475C176.797 42.6442 176.966 43.3495 177.306 43.9634C177.645 44.5642 178.103 45.0343 178.677 45.3739C179.252 45.7004 179.898 45.8637 180.617 45.8637ZM184.496 47V43.9046L184.633 41.8279L184.437 39.7512V32.4633H185.828V47H184.496ZM194.071 47.098C193 47.098 192.059 46.8759 191.25 46.4319C190.44 45.9747 189.806 45.3543 189.349 44.5707C188.892 43.774 188.664 42.8663 188.664 41.8475C188.664 40.8288 188.879 39.9276 189.31 39.1439C189.754 38.3603 190.355 37.7464 191.113 37.3023C191.883 36.8452 192.745 36.6167 193.699 36.6167C194.665 36.6167 195.521 36.8387 196.265 37.2828C197.023 37.7138 197.617 38.3276 198.048 39.1243C198.479 39.908 198.694 40.8157 198.694 41.8475C198.694 41.9128 198.688 41.9846 198.675 42.063C198.675 42.1283 198.675 42.2002 198.675 42.2785H189.722V41.2402H197.93L197.382 41.6516C197.382 40.9071 197.218 40.2476 196.892 39.6729C196.578 39.0851 196.147 38.628 195.599 38.3015C195.05 37.975 194.417 37.8117 193.699 37.8117C192.993 37.8117 192.36 37.975 191.798 38.3015C191.237 38.628 190.799 39.0851 190.486 39.6729C190.172 40.2606 190.015 40.9333 190.015 41.6908V41.9063C190.015 42.6899 190.185 43.3822 190.525 43.983C190.877 44.5707 191.361 45.0343 191.975 45.3739C192.601 45.7004 193.313 45.8637 194.11 45.8637C194.737 45.8637 195.318 45.7527 195.854 45.5307C196.402 45.3086 196.872 44.969 197.264 44.5119L198.048 45.4131C197.591 45.9617 197.016 46.3796 196.324 46.6669C195.645 46.9543 194.894 47.098 194.071 47.098ZM201.526 47V32.4633H202.917V47H201.526ZM206.787 47V32.4633H208.178V47H206.787ZM218.494 47V44.7274L218.435 44.3552V40.5545C218.435 39.6794 218.187 39.0068 217.69 38.5366C217.207 38.0664 216.482 37.8313 215.516 37.8313C214.85 37.8313 214.216 37.9423 213.615 38.1644C213.015 38.3864 212.505 38.6803 212.087 39.046L211.46 38.0076C211.983 37.5636 212.61 37.224 213.341 36.9889C214.073 36.7407 214.843 36.6167 215.653 36.6167C216.985 36.6167 218.01 36.9497 218.729 37.6158C219.46 38.2688 219.826 39.268 219.826 40.6133V47H218.494ZM214.948 47.098C214.177 47.098 213.504 46.9739 212.93 46.7257C212.368 46.4645 211.937 46.1119 211.637 45.6678C211.336 45.2107 211.186 44.6882 211.186 44.1005C211.186 43.565 211.31 43.0818 211.558 42.6507C211.82 42.2067 212.238 41.854 212.812 41.5928C213.4 41.3185 214.184 41.1814 215.163 41.1814H218.709V42.2197H215.202C214.21 42.2197 213.518 42.3961 213.126 42.7487C212.747 43.1013 212.558 43.5389 212.558 44.0613C212.558 44.6491 212.786 45.1192 213.243 45.4719C213.7 45.8245 214.34 46.0008 215.163 46.0008C215.947 46.0008 216.619 45.8245 217.181 45.4719C217.756 45.1062 218.174 44.5837 218.435 43.9046L218.748 44.8646C218.487 45.5437 218.03 46.0857 217.377 46.4906C216.737 46.8955 215.927 47.098 214.948 47.098ZM228.966 47V35.4216C228.966 34.5073 229.234 33.7694 229.77 33.2078C230.305 32.6462 231.076 32.3654 232.081 32.3654C232.473 32.3654 232.852 32.4176 233.218 32.5221C233.583 32.6266 233.89 32.7898 234.139 33.0119L233.668 34.0502C233.472 33.8804 233.244 33.7563 232.983 33.678C232.721 33.5865 232.441 33.5408 232.14 33.5408C231.552 33.5408 231.102 33.7041 230.788 34.0306C230.475 34.3571 230.318 34.8404 230.318 35.4804V37.0477L230.357 37.6942V47H228.966ZM227.125 37.8705V36.7146H233.492V37.8705H227.125ZM241.624 47V44.7274L241.566 44.3552V40.5545C241.566 39.6794 241.317 39.0068 240.821 38.5366C240.338 38.0664 239.613 37.8313 238.646 37.8313C237.98 37.8313 237.347 37.9423 236.746 38.1644C236.145 38.3864 235.636 38.6803 235.218 39.046L234.591 38.0076C235.114 37.5636 235.74 37.224 236.472 36.9889C237.203 36.7407 237.974 36.6167 238.784 36.6167C240.116 36.6167 241.141 36.9497 241.859 37.6158C242.591 38.2688 242.957 39.268 242.957 40.6133V47H241.624ZM238.078 47.098C237.308 47.098 236.635 46.9739 236.06 46.7257C235.499 46.4645 235.068 46.1119 234.767 45.6678C234.467 45.2107 234.317 44.6882 234.317 44.1005C234.317 43.565 234.441 43.0818 234.689 42.6507C234.95 42.2067 235.368 41.854 235.943 41.5928C236.531 41.3185 237.314 41.1814 238.294 41.1814H241.84V42.2197H238.333C237.34 42.2197 236.648 42.3961 236.256 42.7487C235.878 43.1013 235.688 43.5389 235.688 44.0613C235.688 44.6491 235.917 45.1192 236.374 45.4719C236.831 45.8245 237.471 46.0008 238.294 46.0008C239.077 46.0008 239.75 45.8245 240.312 45.4719C240.886 45.1062 241.304 44.5837 241.566 43.9046L241.879 44.8646C241.618 45.5437 241.161 46.0857 240.508 46.4906C239.868 46.8955 239.058 47.098 238.078 47.098ZM259.586 36.6167C260.422 36.6167 261.147 36.7799 261.761 37.1064C262.388 37.4199 262.871 37.9031 263.211 38.5562C263.563 39.2092 263.74 40.0321 263.74 41.0247V47H262.349V41.1618C262.349 40.0778 262.088 39.2615 261.565 38.7129C261.056 38.1513 260.331 37.8705 259.391 37.8705C258.685 37.8705 258.071 38.0207 257.549 38.3211C257.04 38.6084 256.641 39.0329 256.354 39.5945C256.08 40.1431 255.942 40.8092 255.942 41.5928V47H254.551V41.1618C254.551 40.0778 254.29 39.2615 253.768 38.7129C253.245 38.1513 252.514 37.8705 251.574 37.8705C250.881 37.8705 250.274 38.0207 249.752 38.3211C249.229 38.6084 248.824 39.0329 248.537 39.5945C248.263 40.1431 248.126 40.8092 248.126 41.5928V47H246.735V36.7146H248.067V39.4966L247.851 39.0068C248.165 38.2623 248.668 37.6811 249.36 37.2632C250.065 36.8322 250.894 36.6167 251.848 36.6167C252.854 36.6167 253.709 36.8713 254.414 37.3807C255.12 37.877 255.577 38.628 255.786 39.6337L255.237 39.4182C255.538 38.5823 256.067 37.9097 256.824 37.4003C257.595 36.8779 258.515 36.6167 259.586 36.6167ZM267.512 47V36.7146H268.903V47H267.512ZM268.217 34.442C267.93 34.442 267.688 34.3441 267.492 34.1482C267.297 33.9522 267.199 33.7172 267.199 33.4429C267.199 33.1686 267.297 32.94 267.492 32.7572C267.688 32.5613 267.93 32.4633 268.217 32.4633C268.505 32.4633 268.746 32.5547 268.942 32.7376C269.138 32.9204 269.236 33.149 269.236 33.4233C269.236 33.7106 269.138 33.9522 268.942 34.1482C268.759 34.3441 268.518 34.442 268.217 34.442ZM277.162 50.8987C276.221 50.8987 275.32 50.7615 274.458 50.4872C273.596 50.213 272.897 49.8211 272.362 49.3118L273.067 48.2538C273.55 48.6848 274.145 49.0244 274.85 49.2726C275.568 49.5338 276.326 49.6644 277.123 49.6644C278.429 49.6644 279.389 49.3575 280.002 48.7436C280.616 48.1428 280.923 47.2024 280.923 45.9225V43.356L281.119 41.5928L280.982 39.8296V36.7146H282.314V45.7462C282.314 47.5224 281.877 48.822 281.002 49.6448C280.14 50.4807 278.86 50.8987 277.162 50.8987ZM276.907 46.6082C275.928 46.6082 275.046 46.3992 274.262 45.9813C273.479 45.5502 272.858 44.956 272.401 44.1985C271.957 43.4409 271.735 42.5724 271.735 41.5928C271.735 40.6133 271.957 39.7512 272.401 39.0068C272.858 38.2493 273.479 37.6615 274.262 37.2436C275.046 36.8256 275.928 36.6167 276.907 36.6167C277.821 36.6167 278.644 36.806 279.376 37.1848C280.107 37.5636 280.688 38.1252 281.119 38.8696C281.55 39.6141 281.766 40.5218 281.766 41.5928C281.766 42.6638 281.55 43.5715 281.119 44.316C280.688 45.0605 280.107 45.6286 279.376 46.0204C278.644 46.4123 277.821 46.6082 276.907 46.6082ZM277.044 45.3739C277.802 45.3739 278.474 45.2172 279.062 44.9037C279.65 44.5772 280.113 44.1332 280.453 43.5715C280.793 42.9969 280.962 42.3373 280.962 41.5928C280.962 40.8484 280.793 40.1953 280.453 39.6337C280.113 39.0721 279.65 38.6345 279.062 38.3211C278.474 37.9946 277.802 37.8313 277.044 37.8313C276.3 37.8313 275.627 37.9946 275.026 38.3211C274.439 38.6345 273.975 39.0721 273.635 39.6337C273.309 40.1953 273.146 40.8484 273.146 41.5928C273.146 42.3373 273.309 42.9969 273.635 43.5715C273.975 44.1332 274.439 44.5772 275.026 44.9037C275.627 45.2172 276.3 45.3739 277.044 45.3739ZM286.185 47V32.4633H287.576V47H286.185ZM291.446 47V36.7146H292.837V47H291.446ZM292.151 34.442C291.864 34.442 291.623 34.3441 291.427 34.1482C291.231 33.9522 291.133 33.7172 291.133 33.4429C291.133 33.1686 291.231 32.94 291.427 32.7572C291.623 32.5613 291.864 32.4633 292.151 32.4633C292.439 32.4633 292.68 32.5547 292.876 32.7376C293.072 32.9204 293.17 33.149 293.17 33.4233C293.17 33.7106 293.072 33.9522 292.876 34.1482C292.694 34.3441 292.452 34.442 292.151 34.442ZM303.153 47V44.7274L303.094 44.3552V40.5545C303.094 39.6794 302.846 39.0068 302.35 38.5366C301.867 38.0664 301.142 37.8313 300.175 37.8313C299.509 37.8313 298.876 37.9423 298.275 38.1644C297.674 38.3864 297.165 38.6803 296.747 39.046L296.12 38.0076C296.642 37.5636 297.269 37.224 298.001 36.9889C298.732 36.7407 299.503 36.6167 300.312 36.6167C301.645 36.6167 302.67 36.9497 303.388 37.6158C304.12 38.2688 304.485 39.268 304.485 40.6133V47H303.153ZM299.607 47.098C298.836 47.098 298.164 46.9739 297.589 46.7257C297.028 46.4645 296.597 46.1119 296.296 45.6678C295.996 45.2107 295.846 44.6882 295.846 44.1005C295.846 43.565 295.97 43.0818 296.218 42.6507C296.479 42.2067 296.897 41.854 297.472 41.5928C298.059 41.3185 298.843 41.1814 299.823 41.1814H303.369V42.2197H299.862C298.869 42.2197 298.177 42.3961 297.785 42.7487C297.406 43.1013 297.217 43.5389 297.217 44.0613C297.217 44.6491 297.445 45.1192 297.903 45.4719C298.36 45.8245 299 46.0008 299.823 46.0008C300.606 46.0008 301.279 45.8245 301.84 45.4719C302.415 45.1062 302.833 44.5837 303.094 43.9046L303.408 44.8646C303.147 45.5437 302.689 46.0857 302.036 46.4906C301.396 46.8955 300.587 47.098 299.607 47.098Z" fill="#163872"/>
</svg>
